<svg xmlns="http://www.w3.org/2000/svg" version="1.1" width="32" height="32"><rect id="backgroundrect" width="100%" height="100%" x="0" y="0" fill="none" stroke="none"/>
<title>linkedin</title>



<g class="currentLayer" style=""><title>Layer 1</title><path d="M12 12h5.535v2.837h0.079c0.77-1.381 2.655-2.837 5.464-2.837 5.842 0 6.922 3.637 6.922 8.367v9.633h-5.769v-8.54c0-2.037-0.042-4.657-3.001-4.657-3.005 0-3.463 2.218-3.463 4.509v8.688h-5.767v-18z" id="svg_1" class="" fill-opacity="1" fill="#f9ffff"/><path d="M2 12h6v18h-6v-18z" id="svg_2" class="" fill-opacity="1" fill="#f9ffff"/><path d="M8 7c0 1.657-1.343 3-3 3s-3-1.343-3-3c0-1.657 1.343-3 3-3s3 1.343 3 3z" id="svg_3" class="selected" fill-opacity="1" fill="#f9ffff"/></g></svg>