<svg width="356" height="484" viewBox="0 0 356 484" fill="none" xmlns="http://www.w3.org/2000/svg">
<path d="M302.34 318.808C241.545 417.64 138.679 474.788 31.0158 481.363C-11.6831 382.327 -7.07415 264.757 53.7203 165.926C114.515 67.095 217.381 9.9463 325.044 3.37226C367.743 102.408 363.134 219.977 302.34 318.808Z" fill="#AF3A40" stroke="#F9FFFF" stroke-width="5.00388"/>
<path d="M39.7778 462.418C14.5602 404.734 17.0718 336.052 52.5565 278.365C88.0412 220.679 148.216 187.455 211.081 183.936C236.299 241.62 233.787 310.302 198.302 367.989C162.818 425.675 102.643 458.899 39.7778 462.418Z" fill="#3AAFA9"/>
<path d="M174.96 243.175L153.042 186.382C152.392 184.693 151.71 182.745 150.996 180.537C150.282 178.264 149.6 175.861 148.95 173.328C147.586 178.589 146.19 182.972 144.761 186.479L122.843 243.175H174.96ZM214.316 295H199.704C198.015 295 196.651 294.578 195.612 293.734C194.573 292.889 193.794 291.818 193.274 290.519L180.221 256.813H117.582L104.529 290.519C104.139 291.688 103.392 292.727 102.288 293.636C101.184 294.545 99.8204 295 98.1968 295H83.5845L139.404 155.404H158.497L214.316 295Z" fill="#F9FFFF"/>
<path d="M236.034 227.783C241.424 227.783 246.165 227.069 250.256 225.64C254.413 224.211 257.887 222.231 260.68 219.698C263.537 217.1 265.68 214.015 267.109 210.443C268.538 206.872 269.252 202.942 269.252 198.656C269.252 189.759 266.492 182.81 260.972 177.809C255.517 172.809 247.204 170.308 236.034 170.308H213.628V227.783H236.034ZM236.034 155.404C244.866 155.404 252.529 156.443 259.024 158.521C265.583 160.534 271.006 163.424 275.292 167.191C279.578 170.958 282.761 175.504 284.839 180.829C286.982 186.155 288.054 192.097 288.054 198.656C288.054 205.151 286.917 211.093 284.644 216.483C282.371 221.874 279.026 226.517 274.61 230.414C270.259 234.31 264.836 237.363 258.342 239.571C251.912 241.714 244.476 242.785 236.034 242.785H213.628V295H194.827V155.404H236.034Z" fill="#F9FFFF"/>
</svg>
